<?xml version="1.0" encoding="UTF-8"?><svg id="Layer_5" xmlns="http://www.w3.org/2000/svg" viewBox="0 0 126.95 126.95"><defs><style>.2numeric-cls-1{fill:#fcee21;}.2numeric-cls-2,.2numeric-cls-3{fill:none;opacity:.4;stroke:#fff;stroke-miterlimit:10;stroke-width:6px;}.2numeric-cls-3{stroke-linecap:square;}</style></defs><circle class="2numeric-cls-2" cx="63.48" cy="63.48" r="60.48"/><polyline class="2numeric-cls-3" points="21.78 105.22 21.78 21.74 105.26 21.74 105.26 105.22"/><polygon class="2numeric-cls-3" points="103.43 105.26 63.7 25.09 23.96 105.26 103.43 105.26"/><path class="2numeric-cls-1" d="m76.17,24.81c15.91,0,25.71,11.13,25.71,23.15,0,27.6-32.38,21.7-37.17,44.85h37.39v9.35h-49.08v-3.34c0-35.05,38.84-30.49,38.84-50.86,0-7.01-6.01-13.58-15.69-13.58-8.9,0-15.58,5.79-17.25,16.58l-9.46-2.23c2.56-14.47,12.02-23.93,26.71-23.93m0-6c-8.61,0-16.21,2.81-21.97,8.13-5.45,5.03-9.13,12.21-10.64,20.75l-.99,5.59,5.52,1.3,9.46,2.23,6.31,1.49.99-6.41c.81-5.25,3.43-11.5,11.32-11.5,4.7,0,9.69,2.66,9.69,7.58s-3.61,7.38-12.48,12.44c-11.12,6.34-26.35,15.03-26.35,38.41v9.34h61.08v-21.35h-34.05c2.7-3.16,6.74-5.52,12-8.42,9.73-5.37,21.83-12.06,21.83-30.42,0-7.73-3.1-14.97-8.72-20.4-5.84-5.64-14.01-8.75-22.99-8.75h0Z"/></svg>