<?xml version="1.0" encoding="UTF-8"?><svg id="Layer_5" xmlns="http://www.w3.org/2000/svg" viewBox="0 0 126.95 126.95"><defs><style>.3numeric-cls-1{fill:#fcee21;}.3numeric-cls-2,.3numeric-cls-3{fill:none;opacity:.4;stroke:#fff;stroke-miterlimit:10;stroke-width:6px;}.3numeric-cls-3{stroke-linecap:square;}</style></defs><circle class="3numeric-cls-2" cx="63.48" cy="63.48" r="60.48"/><polyline class="3numeric-cls-3" points="21.78 105.22 21.78 21.74 105.26 21.74 105.26 105.22"/><polygon class="3numeric-cls-3" points="103.43 105.26 63.7 25.09 23.96 105.26 103.43 105.26"/><path class="3numeric-cls-1" d="m76.11,25.09c13.43,0,22.61,8.19,22.61,20.97,0,5.9-2.19,11.03-6.33,14.64,6.44,3.93,10.05,10.38,10.05,18.24,0,15.18-10.48,23.37-25.99,23.37s-23.48-6.88-26.76-18.13l9.5-3.82c2.95,7.86,7.65,12.67,17.26,12.67s16.17-7.32,16.17-14.31c0-7.75-6.44-12.78-16.17-12.78h-5.02v-9.28h5.02c7.75,0,12.45-4.15,12.45-10.6,0-6.01-5.13-11.69-12.78-11.69-9.39,0-12.89,6.99-14.96,13.32l-9.5-3.6c3.6-11.58,11.47-19.01,24.46-19.01m0-6c-14.81,0-25.53,8.25-30.19,23.22l-1.68,5.39,5.28,2,9.5,3.6,5.87,2.23.52-1.59v17.99h11.02c2.38,0,10.17.49,10.17,6.78,0,5.73-5.94,8.31-10.17,8.31-6.16,0-9.21-2.3-11.64-8.78l-2.16-5.75-5.7,2.29-9.5,3.82-5.04,2.03,1.52,5.22c5.41,18.56,20.67,22.45,32.52,22.45,19.44,0,31.99-11.53,31.99-29.37,0-7.42-2.68-14.09-7.53-19.07,2.49-3.98,3.81-8.7,3.81-13.8,0-15.88-11.76-26.97-28.61-26.97h0Zm-9.62,31.57l.36-1.09c2.52-7.69,5.3-9.19,9.26-9.19,4.24,0,6.78,2.89,6.78,5.69,0,1.14,0,4.6-6.45,4.6h-9.95Z"/></svg>