<?xml version="1.0" encoding="UTF-8"?><svg id="Layer_5" xmlns="http://www.w3.org/2000/svg" viewBox="0 0 156.16 69.24"><defs><style>.50k-cls-1{fill:none;stroke:#fcee21;stroke-miterlimit:10;stroke-width:6px;}</style></defs><path class="50k-cls-1" d="m26.47,65.66c-7.29,0-16.9-3.65-20.01-13.95l-.68-2.25,11.41-6.73,1.17,3.52c1.32,3.95,4.57,6.6,8.1,6.6,6.66,0,8.17-4.92,8.27-9.05.06-2.37-.66-4.44-2.04-5.86-1.23-1.27-2.95-1.94-4.95-1.94-3.47,0-6.24,1.65-7.38,4.42l-1.05,2.52-11.46-3.54L12.59,4.37h31.96v12.74h-20.72l-.99,6.73c1.51-.39,3.09-.59,4.66-.59,12,0,20.37,8.48,20.37,20.61,0,12.84-8.8,21.8-21.4,21.8Z"/><path class="50k-cls-1" d="m74.94,65.66c-16.04,0-25.61-11.47-25.61-30.69S58.91,3.58,74.94,3.58s25.61,11.74,25.61,31.4-9.57,30.69-25.61,30.69Z"/><path class="50k-cls-1" d="m74.94,52.92c-6.21,0-12.47-5.55-12.47-17.94,0-8.99,3.9-18.66,12.47-18.66s12.47,9.67,12.47,18.66c0,12.4-6.26,17.94-12.47,17.94Z"/><polygon class="50k-cls-1" points="134.45 64.71 118.33 41.34 114.75 45.59 114.75 64.71 101.61 64.71 101.61 4.37 114.75 4.37 114.75 25.54 132.48 4.37 149.46 4.37 127.1 30.88 150.38 64.71 134.45 64.71"/></svg>