<?xml version="1.0" encoding="UTF-8"?><svg id="Layer_5" xmlns="http://www.w3.org/2000/svg" viewBox="0 0 156.16 67.38"><defs><style>.50k-cls-1{fill:#fcee21;}</style></defs><path class="50k-cls-1" d="m41.55,6.44v6.74h-20.31l-2.14,14.6c2.54-1.67,5.55-2.46,8.41-2.46,10.63,0,17.37,7.3,17.37,17.61s-6.98,18.8-18.4,18.8c-6.66,0-14.6-3.41-17.14-11.82l6.19-3.65c1.83,5.47,6.35,8.65,10.95,8.65,7.54,0,11.11-5.16,11.26-11.98.16-6.03-3.73-10.87-10-10.87-4.28,0-8.41,2.06-10.15,6.27l-6.43-1.98L15.21,6.44h26.34M47.55.44H9.96l-.7,5.2-4.05,29.91-.68,5.04,4.86,1.5.93.29-4.03,2.38-4.06,2.39,1.36,4.51c3.58,11.87,14.57,16.09,22.88,16.09,14.14,0,24.4-10.43,24.4-24.8s-9.61-23.61-23.37-23.61c-.37,0-.74,0-1.11.03l.02-.17h21.12V.44h0Zm-26.16,44.39l1.74-4.2c.96-2.32,3.55-2.57,4.61-2.57,1.19,0,2.14.35,2.8,1.03.8.82,1.23,2.16,1.19,3.68-.14,6.14-3.6,6.14-5.27,6.14-1.77,0-3.97-1.27-5.09-4.08h0Z"/><path class="50k-cls-1" d="m74.94,5.65c16.98,0,22.61,14.04,22.61,28.4s-5.63,27.69-22.61,27.69-22.61-13.72-22.61-27.69,5.63-28.4,22.61-28.4m0-6c-9.83,0-17.66,3.97-22.67,11.49-3.89,5.84-5.94,13.76-5.94,22.91,0,20.78,10.96,33.69,28.61,33.69s28.61-12.91,28.61-33.69c0-9.14-2.06-17.07-5.94-22.91C92.61,3.62,84.77-.35,74.94-.35h0Z"/><path class="50k-cls-1" d="m74.94,18.39c6.51,0,9.47,8.12,9.47,15.66,0,4.39-1.06,8.48-2.91,11.23-1.68,2.5-3.82,3.71-6.56,3.71-6.51,0-9.47-7.75-9.47-14.94s2.96-15.66,9.47-15.66m0-6c-10.15,0-15.47,10.31-15.47,21.66s5.32,20.94,15.47,20.94,15.47-10,15.47-20.94-5.31-21.66-15.47-21.66h0Z"/><path class="50k-cls-1" d="m143.01,6.44l-19.67,23.32,21.34,31.02h-8.65l-17.45-25.31-6.82,8.09v17.21h-7.14V6.44h7.14v26.42l22.13-26.42h9.12m12.91-6h-24.83l-1.8,2.15-11.53,13.77V.44h-19.14v66.34h19.14v-21.02l.34-.41,12.99,18.84,1.79,2.59h23.21l-6.47-9.4-18.75-27.25,16.72-19.82L155.92.44h0Z"/></svg>