<svg xmlns="http://www.w3.org/2000/svg" id="Layer_5" viewBox="0 0 126.95 126.95"><defs><style>.numeric2-cls-3{fill:none;stroke-miterlimit:10;stroke-width:6px;opacity:.4;stroke:#fff;stroke-linecap:square}</style></defs><circle cx="63.48" cy="63.48" r="60.48" fill="none" stroke="#fff" stroke-miterlimit="10" stroke-width="6" opacity=".4"/><path d="M21.78 105.22V21.74h83.48v83.48" class="numeric2-cls-3"/><path d="M103.43 105.26 63.7 25.09l-39.74 80.17h79.47z" class="numeric2-cls-3"/><path fill="none" stroke="#fcee21" stroke-miterlimit="10" stroke-width="6" d="M50.03 105.15v-6.34c0-21.64 13.77-29.49 24.84-35.81 8.68-4.95 14-8.33 14-15.05 0-5.13-4.45-10.58-12.69-10.58-7.7 0-12.91 5.12-14.29 14.04l-.5 3.2-15.38-3.62.49-2.79c2.93-16.53 14.01-26.4 29.66-26.4 18.64 0 28.71 13.47 28.71 26.15 0 16.59-10.77 22.54-20.28 27.8-6.65 3.67-12.98 7.17-15.85 14.05h36.35v15.35H50.01Z"/></svg>