<?xml version="1.0" encoding="UTF-8"?><svg id="Layer_5" xmlns="http://www.w3.org/2000/svg" viewBox="0 0 126.95 126.95"><defs><style>.numeric2-right-cls-1{stroke:#fcee21;}.numeric2-right-cls-1,.numeric2-right-cls-2,.numeric2-right-cls-3{fill:none;stroke-miterlimit:10;stroke-width:6px;}.numeric2-right-cls-2,.numeric2-right-cls-3{opacity:.4;stroke:#fff;}.numeric2-right-cls-3{stroke-linecap:square;}</style></defs><circle class="numeric2-right-cls-2" cx="63.48" cy="63.48" r="60.48"/><polyline class="numeric2-right-cls-3" points="21.78 105.22 21.78 21.74 105.26 21.74 105.26 105.22"/><polygon class="numeric2-right-cls-3" points="103.43 105.26 63.7 25.09 23.96 105.26 103.43 105.26"/><path class="numeric2-right-cls-1" d="m50.03,105.15v-6.34c0-21.64,13.77-29.49,24.84-35.81,8.68-4.95,14-8.33,14-15.05,0-5.13-4.45-10.58-12.69-10.58-7.7,0-12.91,5.12-14.29,14.04l-.5,3.2-15.38-3.62.49-2.79c2.93-16.53,14.01-26.4,29.66-26.4,18.64,0,28.71,13.47,28.71,26.15,0,16.59-10.77,22.54-20.28,27.8-6.65,3.67-12.98,7.17-15.85,14.05h36.35v15.35h-55.08Z"/></svg>