<svg xmlns="http://www.w3.org/2000/svg" id="Layer_5" viewBox="0 0 126.95 126.95"><defs><style>.numeric3-cls-3{fill:none;stroke-miterlimit:10;stroke-width:6px;opacity:.4;stroke:#fff;stroke-linecap:square}</style></defs><circle cx="63.48" cy="63.48" r="60.48" fill="none" stroke="#fff" stroke-miterlimit="10" stroke-width="6" opacity=".4"/><path d="M21.78 105.22V21.74h83.48v83.48" class="numeric3-cls-3"/><path d="M103.43 105.26 63.7 25.09l-39.74 80.17h79.47z" class="numeric3-cls-3"/><path fill="none" stroke="#fcee21" stroke-miterlimit="10" stroke-width="6" d="M76.43 105.31c-15.75 0-25.72-6.83-29.64-20.29l-.76-2.61 14.87-5.98 1.08 2.88c2.86 7.62 7.04 10.72 14.45 10.72 8.24 0 13.17-5.75 13.17-11.31 0-7.21-6.8-9.78-13.17-9.78h-8.02V53.66h8.02c2.84 0 9.45-.74 9.45-7.6 0-4.27-3.66-8.69-9.78-8.69s-9.49 3.26-12.11 11.26l-.98 2.98-15.08-5.72.84-2.7c4.24-13.62 13.94-21.11 27.33-21.11 15.32 0 25.61 9.63 25.61 23.97 0 5.42-1.67 10.34-4.77 14.21 5.5 4.55 8.49 11.06 8.49 18.67 0 16.27-11.11 26.37-28.99 26.37Z"/></svg>