<?xml version="1.0" encoding="UTF-8"?><svg id="Layer_5" xmlns="http://www.w3.org/2000/svg" viewBox="0 0 126.95 126.95"><defs><style>.numeric3-cls-1{stroke:#fcee21;}.numeric3-cls-1,.numeric3-cls-2,.numeric3-cls-3{fill:none;stroke-miterlimit:10;stroke-width:6px;}.numeric3-cls-2,.numeric3-cls-3{opacity:.4;stroke:#fff;}.numeric3-cls-3{stroke-linecap:square;}</style></defs><circle class="numeric3-cls-2" cx="63.48" cy="63.48" r="60.48"/><polyline class="numeric3-cls-3" points="21.78 105.22 21.78 21.74 105.26 21.74 105.26 105.22"/><polygon class="numeric3-cls-3" points="103.43 105.26 63.7 25.09 23.96 105.26 103.43 105.26"/><path class="numeric3-cls-1" d="m64.18,105.31c-15.75,0-25.72-6.83-29.64-20.29l-.76-2.61,14.87-5.98,1.08,2.88c2.86,7.62,7.04,10.72,14.45,10.72,8.24,0,13.17-5.75,13.17-11.31,0-7.21-6.8-9.78-13.17-9.78h-8.02v-15.28h8.02c2.84,0,9.45-.74,9.45-7.6,0-4.27-3.66-8.69-9.78-8.69s-9.49,3.26-12.11,11.26l-.98,2.98-15.08-5.72.84-2.7c4.24-13.62,13.94-21.11,27.33-21.11,15.32,0,25.61,9.63,25.61,23.97,0,5.42-1.67,10.34-4.77,14.21,5.5,4.55,8.49,11.06,8.49,18.67,0,16.27-11.11,26.37-28.99,26.37Z"/></svg>