<?xml version="1.0" encoding="UTF-8"?><svg id="Layer_5" xmlns="http://www.w3.org/2000/svg" viewBox="0 0 126.95 126.95"><defs><style>.question-cls-1{stroke:#fcee21;}.question-cls-1,.question-cls-2,.question-cls-3{fill:none;stroke-miterlimit:10;stroke-width:6px;}.question-cls-2,.question-cls-3{opacity:.4;stroke:#fff;}.question-cls-3{stroke-linecap:square;}</style></defs><circle class="question-cls-2" cx="63.48" cy="63.48" r="60.48"/><polyline class="question-cls-3" points="21.78 105.22 21.78 21.74 105.26 21.74 105.26 105.22"/><polygon class="question-cls-3" points="103.43 105.26 63.7 25.09 23.96 105.26 103.43 105.26"/><path class="question-cls-1" d="m56.69,105.22v-13.75h13.75v13.75h-13.75Zm0-26.59v-11.06c0-8.72,5.57-13.24,10.04-16.87,3.55-2.88,5.73-4.79,5.73-7.47,0-8.08-6.29-8.7-8.22-8.7-5.57,0-8.66,2.99-10.02,9.69l-.57,2.81-12.82-4.53.54-2.19c4.07-16.63,15-18.55,22.87-18.55,5.81,0,11.12,1.78,14.95,5.01,4.53,3.82,6.92,9.51,6.92,16.48,0,8.56-5.25,12.99-9.47,16.56-3.85,3.25-6.21,5.43-6.21,9.15v9.7h-13.75Z"/></svg>